# xmcd
#
# Track frame offsets: 
#        150
#        14125
#        27283
#        42338
#        64022
#        79373
#        93113
#        112319
#        130049
#        147819
#        164500
#        180401
#        201157
#
# Disc length: 2872 seconds
#
# Revision: 0
# Processed by: cddbd v1.5.2PL0 Copyright (c) Steve Scherf et al.
# Submitted via: ExactAudioCopyFreeDBPlugin 1.0
#
DISCID=b40b360d
DTITLE=Banks - The Altar (Deluxe Edition)
DYEAR=2016
DGENRE=Pop
TTITLE0=Gemini Feed
TTITLE1=Fuck With Myself
TTITLE2=Lovesick
TTITLE3=Mind Games
TTITLE4=Trainwreck
TTITLE5=This Is Not About Us
TTITLE6=Weaker Girl
TTITLE7=Mother Earth
TTITLE8=Judas
TTITLE9=Haunt
TTITLE10=Poltergeist
TTITLE11=To The Hilt
TTITLE12=27 Hours (Bonus Track)
EXTD=
EXTT0=
EXTT1=
EXTT2=
EXTT3=
EXTT4=
EXTT5=
EXTT6=
EXTT7=
EXTT8=
EXTT9=
EXTT10=
EXTT11=
EXTT12=
PLAYORDER=
